{
    "asset": {
        "version": "2.0",
        "generator": "Open Asset Import Library (assimp v5.2.cf7d3637)"
    },
    "extensionsUsed": [
        "KHR_materials_volume",
        "FB_ngon_encoding"
    ],
    "accessors": [
        {
            "bufferView": 0,
            "byteOffset": 0,
            "componentType": 5126,
            "count": 1370826,
            "type": "VEC3",
            "max": [
                5.197386741638184,
                11.890037536621094,
                2.460388422012329
            ],
            "min": [
                -4.73615026473999,
                -9.999725341796875,
                -4.005324363708496
            ]
        },
        {
            "bufferView": 1,
            "byteOffset": 0,
            "componentType": 5126,
            "count": 1370826,
            "type": "VEC3",
            "max": [
                1.0,
                1.0,
                1.0
            ],
            "min": [
                -1.0,
                -1.0,
                -1.0
            ]
        },
        {
            "bufferView": 2,
            "byteOffset": 0,
            "componentType": 5126,
            "count": 1370826,
            "type": "VEC2",
            "max": [
                50002.3671875,
                15.529441833496094
            ],
            "min": [
                -55.600101470947269,
                -46.0
            ]
        },
        {
            "bufferView": 3,
            "byteOffset": 0,
            "componentType": 5125,
            "count": 1370826,
            "type": "SCALAR",
            "max": [
                1370825
            ],
            "min": [
                0
            ]
        }
    ],
    "buffers": [
        {
            "byteLength": 49349736,
            "uri": "result.bin"
        }
    ],
    "bufferViews": [
        {
            "buffer": 0,
            "byteOffset": 0,
            "byteLength": 16449912,
            "target": 34962
        },
        {
            "buffer": 0,
            "byteOffset": 16449912,
            "byteLength": 16449912,
            "target": 34962
        },
        {
            "buffer": 0,
            "byteOffset": 32899824,
            "byteLength": 10966608,
            "target": 34962
        },
        {
            "buffer": 0,
            "byteOffset": 43866432,
            "byteLength": 5483304,
            "target": 34963
        }
    ],
    "materials": [
        {
            "name": "Material.001",
            "doubleSided": true
        },
        {
            "name": "material"
        }
    ],
    "meshes": [
        {
            "name": "Cylinder Head GT 2",
            "primitives": [
                {
                    "mode": 4,
                    "material": 0,
                    "indices": 3,
                    "attributes": {
                        "POSITION": 0,
                        "NORMAL": 1,
                        "TEXCOORD_0": 2
                    }
                }
            ]
        }
    ],
    "nodes": [
        {
            "name": "Cylinder Head GT 2",
            "matrix": [
                1.0,
                0.0,
                0.0,
                0.0,
                0.0,
                -1.1920928955078126e-7,
                1.0000001192092896,
                0.0,
                0.0,
                -1.0000001192092896,
                -1.1920928955078126e-7,
                0.0,
                0.0,
                -0.9318170547485352,
                0.0,
                1.0
            ],
            "mesh": 0
        }
    ],
    "scenes": [
        {
            "nodes": [
                0
            ]
        }
    ],
    "scene": 0
}